<?xml version="1.0" encoding="UTF-8" standalone="no"?><!DOCTYPE svg PUBLIC "-//W3C//DTD SVG 1.1//EN" "http://www.w3.org/Graphics/SVG/1.1/DTD/svg11.dtd"><svg width="100%" height="100%" viewBox="0 0 752 279" version="1.1" xmlns="http://www.w3.org/2000/svg" xmlns:xlink="http://www.w3.org/1999/xlink" xml:space="preserve" xmlns:serif="http://www.serif.com/" style="fill-rule:evenodd;clip-rule:evenodd;stroke-linejoin:round;stroke-miterlimit:1.41421;"><path d="M277.396,34.721c-8.029,31.825 -80.687,189.424 -83.034,214.107c-1.855,19.506 17.775,38.53 21.767,26.135c11.982,-37.196 57.764,-112.934 72.864,-125.98c-3.272,7.818 -16.392,50.821 -17.061,60.944c-1.013,15.324 18.469,24.133 22.542,12.015c13.827,-41.136 56.58,-90.666 56.58,-90.666c0,0 -12.444,46.624 -12.707,53.475c-0.609,15.875 13.091,27.866 21.677,19.497c8.281,-8.072 30.152,-42.156 39.929,-53.953c28.095,-33.9 50.963,-38.686 59.773,-37.023c1.022,3.883 -8.389,18.237 -13.086,22.042c-17.099,9.875 -34.29,28.78 -37.06,38.234c-3.021,10.312 10.384,22.63 17.703,19.037c20.997,-10.309 43.528,-51.135 44.501,-51.946c10.324,-8.61 34.848,-16.605 34.848,-16.605c-24.22,18.286 -33.206,57.599 -5.352,57.969c6.364,0.085 22.021,-6.375 22.021,-6.375c0.307,0.306 -6.471,14.736 -7.656,19.137c-2.108,7.833 16.215,20.804 17.058,12.502c0.383,-3.77 23.376,-59.409 40.098,-85.313c10.273,-15.912 15.213,-33.616 11.909,-44.255c-2.612,-8.407 -15.048,-19.947 -32.447,-19.983c-16.17,-0.033 -50.514,9.653 -57.209,21.86c-5.256,9.584 4.835,21.9 9.423,18.432c8.529,-6.448 31.632,-19.063 48.106,-19.354c12.789,-0.225 12.217,7.537 12.217,7.537c-28.628,2.478 -83.532,29.682 -83.532,29.682c6.345,-24.1 -27.963,-31.497 -49.572,-17.299c7.6,-10.809 38.762,-64.026 42.452,-77.997c3.444,-13.04 -16.717,-25.922 -20.51,-16.16c-9.12,23.474 -92.963,164.081 -92.963,164.081c-0.003,-1.627 26.962,-63.886 26.675,-68.286c-0.299,-4.573 -16.475,-13.577 -19.092,-12.216c-8.888,4.621 -49.519,47.199 -49.519,47.199c5.205,-14.018 22.373,-50.448 24.088,-53.1c4.534,-7.008 -17.021,-19.417 -20.923,-16.2c-7.83,6.454 -53.547,75.214 -63.708,88.696c-0.048,0.063 43.083,-93.197 43.748,-103.639c0.601,-9.45 -21.288,-29.151 -24.548,-16.231Zm198.269,162.159c14.926,-1.318 26.328,15.632 17.414,18.075c-8.579,2.351 -56.055,9.12 -105.548,21.317c-60.2,14.835 -123.645,35.384 -127.015,36.434c-17.369,5.412 -9.086,-19.251 1.487,-22.906c84.581,-29.234 200.616,-51.768 213.662,-52.92Zm-260.306,-138.799c-4.672,21.507 -50.261,123.119 -56.096,146.138c-4.146,16.357 17.42,36.851 20.996,23.404c10.512,-39.52 57.491,-133.451 60.093,-153.004c2.242,-16.851 -22.711,-27.045 -24.993,-16.538Zm365.488,81.551c3.187,-5.502 9.539,-8.345 15.765,-7.056c15.305,3.155 34.517,4.692 59.54,3.487c17.191,-0.828 -8.164,27.757 -31.849,25.547c-16.724,-1.561 -31.425,-6.372 -40.419,-11.218c-1.831,-1.006 -3.183,-2.704 -3.755,-4.713c-0.572,-2.01 -0.316,-4.165 0.711,-5.984c-0.022,-0.013 -0.022,-0.013 0.007,-0.063Zm-422.775,-6.947c2.873,-0.732 5.91,0.255 7.805,2.534c1.895,2.28 2.31,5.446 1.065,8.137c0.036,0.02 0.034,0.022 0.033,0.025c-3.969,8.583 -11.821,14.736 -21.104,16.539c-5.255,1.007 -11.187,1.846 -17.782,2.483c-23.678,2.286 -49.124,-26.218 -31.93,-25.445c25.594,1.151 45.993,-0.764 61.913,-4.273Zm349.984,26.488c11.393,-0.628 43.771,-35.801 45.328,-46.923c0,0 -42.56,26.87 -45.328,46.923Zm-324.892,-53.349c-2.545,6.451 -8.157,11.194 -14.941,12.628c-31.273,6.609 -76.253,4.128 -98.435,-1.214c-21.562,-5.193 -35.778,-36.534 -21.776,-31.879c32.518,10.809 92.977,14.303 127.187,10.368c2.615,-0.364 5.228,0.685 6.864,2.758c1.636,2.072 2.051,4.857 1.09,7.316c0.018,0.007 0.018,0.007 0.011,0.023Zm413.909,1.336c2.007,-6.249 7.954,-10.375 14.509,-10.068c31.784,1.222 69.139,-4.916 92.551,-12.782c13.987,-4.699 -1.738,26.69 -23.283,31.951c-17.839,4.357 -51.58,6.314 -76.439,2.773c-2.65,-0.411 -4.988,-1.96 -6.401,-4.239c-1.413,-2.28 -1.76,-5.062 -0.949,-7.619c0.006,0.002 0.006,0.002 0.012,-0.016Zm-400.982,-38.155c-2.092,6.918 -8.198,11.855 -15.4,12.452c-62.82,4.62 -143.549,-9.768 -166.898,-33.778c-17.547,-18.045 -16.481,-52.802 -6.501,-41.772c37.819,41.797 130.64,53.698 181.172,53.085c2.489,-0.06 4.857,1.077 6.366,3.058c1.509,1.981 1.976,4.566 1.257,6.95c0.005,0.001 0.005,0.001 0.004,0.005Zm404.424,4.208c-1.172,-3.613 -0.618,-7.564 1.501,-10.716c2.12,-3.151 5.57,-5.154 9.358,-5.432c51.318,-4.129 107.836,-24.096 133.225,-52.337c9.944,-11.062 11.122,23.692 -6.368,41.792c-18.703,19.357 -72.573,32.615 -126.164,34.771c-5.222,0.192 -9.937,-3.105 -11.549,-8.076c-0.003,0 -0.003,-0.001 -0.003,-0.002Z" style="fill:#F7F7F5;"/></svg>