<?xml version="1.0" encoding="UTF-8" standalone="no"?><!DOCTYPE svg PUBLIC "-//W3C//DTD SVG 1.1//EN" "http://www.w3.org/Graphics/SVG/1.1/DTD/svg11.dtd"><svg width="100%" height="100%" viewBox="0 0 387 232" version="1.1" xmlns="http://www.w3.org/2000/svg" xmlns:xlink="http://www.w3.org/1999/xlink" xml:space="preserve" xmlns:serif="http://www.serif.com/" style="fill-rule:evenodd;clip-rule:evenodd;stroke-linejoin:round;stroke-miterlimit:2;"><rect id="Face" x="0" y="0" width="386.269" height="231.793" style="fill:none;"/><g><path d="M216.621,143.922c-16.687,4.351 -34.072,7.166 -51.074,4.369l-0.106,-0.018c3.906,14.881 17.123,28.064 34.588,24.817c8.818,-1.639 17.408,-8.327 18.505,-17.829c0.44,-3.812 -0.226,-7.681 -1.469,-11.333c0,0 -0.248,-0.058 -0.444,-0.006Z" style="fill:#e66000;"/><path d="M206.753,107.703c-15.557,0.135 -31.575,6.056 -40.484,18.958c-1.975,2.859 -3.585,6.052 -3.821,9.466l0,0.005c15.878,4.187 33.106,1.509 49.552,-2.645c14.753,-3.726 29.081,-9 43.155,-14.844l0.363,-0.151c-15.24,-6.043 -31.408,-10.611 -47.653,-10.788c-0.371,-0.002 -0.741,-0.002 -1.112,-0.001Z" style="fill:#e66000;"/><g><path d="M264.198,5.92c16.578,0.105 31.506,10.493 40.804,24.697c0,0 2.341,7.471 -3.222,8.813c-5.489,1.323 -8.895,-7.567 -14.66,-12.961c-5.105,-4.775 -11.519,-8.124 -18.584,-9.015c-6.719,-0.847 -13.541,0.339 -19.974,2.233c0,0 -3.164,0.63 -5.212,-1.093c-3.141,-2.641 -2.174,-8.483 2.52,-9.849c5.843,-1.701 11.794,-2.778 17.827,-2.825c0.167,-0.001 0.334,-0.001 0.501,0Z" style="fill:#09001a;"/><g><path d="M265.837,50.183c-9.673,0.838 -16.846,9.373 -16.007,19.046c0.838,9.674 9.373,16.846 19.046,16.008c9.674,-0.839 16.846,-9.373 16.008,-19.047c-0.839,-9.673 -9.373,-16.846 -19.047,-16.007Z" style="fill:#09001a;"/><circle cx="273.048" cy="59.188" r="4.171" style="fill:#f6fcff;"/></g></g><g><path d="M92.408,24.036c4.676,0.036 10.93,0.778 9.878,6.751c-0.968,5.49 -9.306,4.027 -16.506,4.844c-10.361,1.176 -20.084,6.934 -25.768,15.716c-2.35,3.63 -4.154,7.586 -5.623,11.646c0,0 -2.255,3.893 -5.609,3.704c-3.367,-0.189 -6.082,-3.847 -5.079,-7.223c3.981,-13.387 15.815,-28.666 32.189,-33.346c5.344,-1.528 10.887,-2.097 16.518,-2.092Z" style="fill:#09001a;"/><g><path d="M92.892,72.131c-9.674,0.839 -16.846,9.373 -16.008,19.047c0.839,9.673 9.373,16.846 19.046,16.007c9.674,-0.838 16.847,-9.373 16.008,-19.046c-0.839,-9.674 -9.373,-16.846 -19.046,-16.008Z" style="fill:#09001a;"/><circle cx="100.102" cy="81.137" r="4.171" style="fill:#f6fcff;"/></g></g><path d="M44.732,136.693c24.484,-3.497 47.202,13.542 50.699,38.027c3.496,24.484 -13.543,47.202 -38.027,50.699c-24.485,3.497 -47.202,-13.543 -50.699,-38.027c-3.497,-24.485 13.542,-47.202 38.027,-50.699Z" style="fill:#ffb758;"/><path d="M328.865,98.211c24.485,-3.497 47.202,13.543 50.699,38.027c3.497,24.485 -13.542,47.202 -38.027,50.699c-24.484,3.497 -47.202,-13.543 -50.699,-38.027c-3.497,-24.485 13.543,-47.202 38.027,-50.699Z" style="fill:#ffb758;"/></g></svg>