<?xml version="1.0" encoding="UTF-8" standalone="no"?><!DOCTYPE svg PUBLIC "-//W3C//DTD SVG 1.1//EN" "http://www.w3.org/Graphics/SVG/1.1/DTD/svg11.dtd"><svg width="100%" height="100%" viewBox="0 0 32 32" version="1.1" xmlns="http://www.w3.org/2000/svg" xmlns:xlink="http://www.w3.org/1999/xlink" xml:space="preserve" xmlns:serif="http://www.serif.com/" style="fill-rule:evenodd;clip-rule:evenodd;stroke-linejoin:round;stroke-miterlimit:1.41421;"><g><rect x="-7" y="-7" width="46" height="46" style="fill:none;"/><path d="M27.37,8.869c-0.563,2.572 -6.037,14.721 -6.74,17.474c-0.499,1.957 2.078,4.413 2.508,2.805c1.265,-4.727 6.905,-15.957 7.22,-18.296c0.271,-2.016 -2.713,-3.24 -2.988,-1.983Zm-6.868,8.915c0.343,-0.087 0.707,0.032 0.933,0.305c0.226,0.273 0.275,0.652 0.126,0.974c0.004,0.002 0.004,0.002 0.004,0.003c-0.477,1.026 -1.417,1.761 -2.528,1.974c-0.63,0.12 -1.339,0.219 -2.129,0.294c-2.833,0.269 -5.872,-3.146 -3.815,-3.05c3.062,0.142 5.503,-0.083 7.409,-0.5Zm3.007,-3.209c-0.306,0.771 -0.978,1.338 -1.79,1.508c-3.743,0.785 -9.125,0.479 -11.778,-0.164c-2.579,-0.626 -4.274,-4.378 -2.599,-3.819c3.888,1.3 11.122,1.73 15.216,1.265c0.313,-0.043 0.625,0.083 0.821,0.332c0.195,0.248 0.244,0.581 0.129,0.875c0.002,0.001 0.002,0.001 0.001,0.003Zm1.554,-4.403c-0.252,0.827 -0.983,1.417 -1.845,1.487c-7.518,0.541 -17.174,-1.196 -19.963,-4.074c-2.096,-2.162 -1.962,-6.321 -0.77,-4.999c4.517,5.008 15.621,6.45 21.667,6.386c0.298,-0.006 0.581,0.13 0.761,0.368c0.18,0.237 0.236,0.546 0.149,0.831c0.001,0.001 0.001,0.001 0.001,0.001Z" style="fill:#ffdc00;"/></g></svg>