<?xml version="1.0" encoding="UTF-8" standalone="no"?><!DOCTYPE svg PUBLIC "-//W3C//DTD SVG 1.1//EN" "http://www.w3.org/Graphics/SVG/1.1/DTD/svg11.dtd"><svg width="100%" height="100%" viewBox="0 0 32 32" version="1.1" xmlns="http://www.w3.org/2000/svg" xmlns:xlink="http://www.w3.org/1999/xlink" xml:space="preserve" xmlns:serif="http://www.serif.com/" style="fill-rule:evenodd;clip-rule:evenodd;stroke-linejoin:round;stroke-miterlimit:1.41421;"><path d="M12.065,11.797c-0.323,1.269 -3.232,7.554 -3.328,8.539c-0.075,0.779 0.707,1.539 0.867,1.045c0.481,-1.484 2.313,-4.504 2.916,-5.023c-0.131,0.311 -0.657,2.027 -0.684,2.431c-0.042,0.611 0.735,0.964 0.899,0.481c0.554,-1.641 2.264,-3.615 2.264,-3.615c0,0 -0.5,1.86 -0.511,2.133c-0.025,0.634 0.521,1.113 0.864,0.78c0.331,-0.322 1.206,-1.681 1.597,-2.151c1.123,-1.351 2.036,-1.541 2.388,-1.474c0.04,0.155 -0.336,0.727 -0.524,0.879c-0.683,0.393 -1.37,1.147 -1.481,1.524c-0.122,0.411 0.413,0.904 0.705,0.761c0.839,-0.411 1.741,-2.038 1.779,-2.071c0.413,-0.343 1.392,-0.66 1.392,-0.66c-0.968,0.728 -1.329,2.296 -0.217,2.313c0.254,0.004 0.879,-0.253 0.879,-0.253c0.012,0.012 -0.259,0.588 -0.307,0.763c-0.084,0.313 0.646,0.832 0.68,0.5c0.016,-0.15 0.937,-2.369 1.606,-3.402c0.411,-0.635 0.61,-1.341 0.478,-1.766c-0.103,-0.335 -0.599,-0.797 -1.293,-0.799c-0.646,-0.003 -2.017,0.382 -2.285,0.869c-0.21,0.382 0.192,0.874 0.375,0.736c0.341,-0.257 1.264,-0.759 1.921,-0.77c0.511,-0.008 0.487,0.302 0.487,0.302c-1.142,0.097 -3.336,1.179 -3.336,1.179c0.255,-0.961 -1.114,-1.259 -1.977,-0.693c0.304,-0.431 1.551,-2.553 1.699,-3.11c0.139,-0.521 -0.665,-1.036 -0.817,-0.647c-0.366,0.937 -3.721,6.543 -3.721,6.543c0,-0.065 1.08,-2.548 1.069,-2.724c-0.012,-0.182 -0.657,-0.543 -0.761,-0.488c-0.355,0.183 -1.979,1.88 -1.979,1.88c0.208,-0.559 0.896,-2.012 0.964,-2.118c0.182,-0.279 -0.678,-0.776 -0.834,-0.647c-0.313,0.257 -2.142,2.998 -2.548,3.535c-0.002,0.003 1.725,-3.716 1.753,-4.133c0.024,-0.377 -0.848,-1.165 -0.979,-0.649Zm7.903,6.484c0.596,-0.052 1.049,0.626 0.694,0.723c-0.343,0.093 -2.238,0.36 -4.214,0.844c-2.404,0.588 -4.937,1.404 -5.072,1.446c-0.694,0.215 -0.361,-0.769 0.061,-0.914c3.377,-1.162 8.01,-2.054 8.531,-2.099Zm-10.381,-5.556c-0.187,0.858 -2.013,4.91 -2.248,5.829c-0.166,0.652 0.693,1.472 0.837,0.935c0.422,-1.576 2.303,-5.322 2.408,-6.102c0.09,-0.673 -0.905,-1.081 -0.997,-0.662Zm14.582,3.278c0.128,-0.219 0.382,-0.332 0.63,-0.281c0.611,0.127 1.377,0.19 2.376,0.143c0.686,-0.032 -0.328,1.108 -1.273,1.018c-0.667,-0.063 -1.254,-0.256 -1.612,-0.45c-0.073,-0.041 -0.127,-0.108 -0.15,-0.189c-0.022,-0.08 -0.012,-0.166 0.029,-0.239c-0.001,0 -0.001,0 0,-0.002Zm-16.873,-0.304c0.115,-0.029 0.236,0.01 0.312,0.101c0.075,0.091 0.091,0.218 0.042,0.325c0.001,0.001 0.001,0.001 0.001,0.001c-0.159,0.342 -0.473,0.588 -0.843,0.659c-0.21,0.04 -0.447,0.073 -0.71,0.098c-0.945,0.09 -1.959,-1.05 -1.273,-1.018c1.021,0.048 1.836,-0.027 2.471,-0.166Zm13.967,1.079c0.455,-0.024 1.749,-1.426 1.812,-1.87c0,0 -1.7,1.07 -1.812,1.87Zm-12.964,-2.15c-0.102,0.258 -0.326,0.447 -0.597,0.503c-1.248,0.262 -3.043,0.16 -3.928,-0.054c-0.86,-0.209 -1.426,-1.461 -0.867,-1.274c1.297,0.433 3.71,0.577 5.075,0.422c0.105,-0.015 0.209,0.027 0.274,0.11c0.065,0.083 0.082,0.194 0.043,0.292c0.001,0.001 0.001,0.001 0,0.001Zm16.52,0.08c0.08,-0.249 0.318,-0.414 0.58,-0.401c1.268,0.051 2.759,-0.192 3.694,-0.504c0.559,-0.187 -0.071,1.065 -0.931,1.274c-0.712,0.172 -2.059,0.248 -3.051,0.105c-0.106,-0.016 -0.199,-0.078 -0.255,-0.169c-0.056,-0.091 -0.07,-0.202 -0.038,-0.304c0.001,0 0.001,0 0.001,-0.001Zm-16.001,-1.548c-0.084,0.276 -0.328,0.472 -0.616,0.496c-2.507,0.18 -5.728,-0.399 -6.659,-1.359c-0.699,-0.721 -0.654,-2.109 -0.256,-1.668c1.506,1.671 5.21,2.152 7.227,2.13c0.099,-0.002 0.194,0.044 0.254,0.123c0.06,0.079 0.078,0.182 0.05,0.277c0,0 0,0 0,0.001Zm16.14,0.193c-0.046,-0.144 -0.024,-0.302 0.061,-0.427c0.085,-0.126 0.223,-0.206 0.374,-0.216c2.048,-0.162 4.305,-0.955 5.32,-2.081c0.398,-0.441 0.443,0.947 -0.256,1.668c-0.748,0.771 -2.899,1.297 -5.038,1.38c-0.208,0.007 -0.396,-0.125 -0.46,-0.324c0,0 -0.001,0 -0.001,0Z" style="fill:#ffdc00;"/></svg>