<?xml version="1.0" encoding="UTF-8" standalone="no"?><!DOCTYPE svg PUBLIC "-//W3C//DTD SVG 1.1//EN" "http://www.w3.org/Graphics/SVG/1.1/DTD/svg11.dtd"><svg width="100%" height="100%" viewBox="0 0 520 524" version="1.1" xmlns="http://www.w3.org/2000/svg" xmlns:xlink="http://www.w3.org/1999/xlink" xml:space="preserve" xmlns:serif="http://www.serif.com/" style="fill-rule:evenodd;clip-rule:evenodd;stroke-linejoin:round;stroke-miterlimit:2;"><rect id="head" x="0" y="0" width="519.66" height="523.399" style="fill:none;"/><g><path d="M223.621,10.151c149.911,-22.108 266.464,79.957 286.166,217.906c19.702,137.95 -76.299,265.942 -214.248,285.644c-137.95,19.702 -265.942,-76.299 -285.644,-214.248c-18.56,-129.947 63.815,-267.194 213.726,-289.302Z" style="fill:#ffe676;"/><path d="M77.282,85.164c-25.295,48.055 -35.282,103.874 -27.494,158.407c19.702,137.95 147.695,233.951 285.644,214.249c58.857,-8.406 110.079,-36.525 147.935,-76.72c-36.456,69.27 -104.487,120.698 -187.828,132.601c-137.95,19.702 -265.942,-76.299 -285.644,-214.248c-11.067,-77.488 13.756,-157.571 67.387,-214.289Z" style="fill:#ffd95e;"/></g></svg>