<?xml version="1.0" encoding="UTF-8" standalone="no"?><!DOCTYPE svg PUBLIC "-//W3C//DTD SVG 1.1//EN" "http://www.w3.org/Graphics/SVG/1.1/DTD/svg11.dtd"><svg width="100%" height="100%" viewBox="0 0 675 767" version="1.1" xmlns="http://www.w3.org/2000/svg" xmlns:xlink="http://www.w3.org/1999/xlink" xml:space="preserve" xmlns:serif="http://www.serif.com/" style="fill-rule:evenodd;clip-rule:evenodd;stroke-linejoin:round;stroke-miterlimit:2;"><rect id="Artboard6" x="-323.913" y="-259.308" width="1283.33" height="1283.33" style="fill:none;"/><path d="M162.225,496.54c-19.148,-32.1 -176.966,-57.932 -158.965,-36.986c18.001,20.946 94.39,47.084 98.856,47.416c-22.611,8.372 -83.28,24.403 -69.605,34.642c13.676,10.239 75.41,-5.077 75.317,-4.878c-16.61,13.88 -36.127,54.24 -14.952,44.76c33.41,-14.958 80.507,-66.25 69.349,-84.954Z" style="fill:#ffd95e;"/><path d="M538.528,487.174c8.713,-33.546 142.495,-97.505 131.908,-74.187c-10.587,23.319 -71.804,66.414 -75.692,67.869c22.301,1.584 80.468,0.106 70.952,12.771c-9.516,12.664 -68.446,15.054 -68.311,15.207c18.388,8.045 46.238,38.907 24.927,35.964c-33.623,-4.643 -88.862,-38.077 -83.784,-57.624Z" style="fill:#ffd95e;"/><g><path d="M305.9,626.535c5.392,0.898 5.088,8.595 4.634,14.915c-2.293,31.851 -17.428,63.215 -42.209,83.226c-11.087,8.953 -24.421,15.714 -38.621,16.439c-3.434,0.175 -7.136,-1.692 -7.352,-5.228c-0.219,-3.558 3.321,-5.794 7.32,-6.046c22.544,-1.525 41.868,-19.958 53.944,-39.95c10.394,-17.209 16.009,-37.307 15.97,-57.417c-0,0 1.194,-6.35 6.314,-5.939Z" style="fill:#ef4343;"/><path d="M367.441,617.693c2.861,0.379 4.711,3.359 5.355,5.195c11.828,33.725 19.076,71.134 11.367,103.759c-3.443,14.571 -11.655,28.752 -25.974,35.41c-0,-0 -3.023,1.256 -5.416,-0.125c-3.86,-2.229 -3.108,-8.171 1.729,-10.594c13.281,-6.774 18.837,-23.605 20.388,-37.071c3.441,-29.872 -3.079,-60.785 -13.22,-89.066c0,-0 -0.699,-2.26 0.153,-4.181c0.94,-2.12 3.174,-3.417 5.618,-3.327Z" style="fill:#ef4343;"/></g><path d="M316.464,115.283c-3.45,-25.491 -8.88,-50.693 -14.495,-75.795c-2.215,-9.907 -5.574,-19.536 -8.968,-29.103c-4.352,-12.266 -12.01,-10.317 -15.403,2.308c-4.761,17.718 -8.251,35.717 -9.638,54.037c-0.356,4.698 -2.781,10.669 0.418,14.128c-65.469,-69.76 -114.46,-48.744 -44.272,28.846c-84.741,-6.172 -68.236,17.066 -21.519,36.179c43.629,17.851 126.479,46.975 113.877,-30.6" style="fill:#ef4343;"/><g><path d="M299.178,134.308c149.911,-22.109 266.464,79.956 286.166,217.906c19.702,137.949 -76.3,265.942 -214.249,285.644c-137.949,19.702 -265.942,-76.3 -285.644,-214.249c-18.559,-129.947 63.816,-267.193 213.727,-289.301Z" style="fill:#ffe676;"/><path d="M152.838,209.321c-25.295,48.055 -35.282,103.873 -27.493,158.407c19.702,137.949 147.694,233.951 285.644,214.249c58.857,-8.407 110.078,-36.526 147.935,-76.721c-36.456,69.27 -104.487,120.699 -187.829,132.602c-137.949,19.702 -265.942,-76.3 -285.644,-214.249c-11.067,-77.488 13.756,-157.571 67.387,-214.288Z" style="fill:#ffe676;"/></g><path d="M402.663,397.292c-16.688,4.351 -34.072,7.166 -51.075,4.369l-0.105,-0.018c3.905,14.88 17.122,28.064 34.587,24.817c8.818,-1.639 17.408,-8.327 18.505,-17.829c0.44,-3.812 -0.225,-7.682 -1.469,-11.333c0,0 -0.248,-0.058 -0.443,-0.006Z" style="fill:#ef4343;"/><path d="M392.795,361.073c-15.558,0.134 -31.576,6.055 -40.485,18.957c-1.974,2.86 -3.585,6.053 -3.82,9.466l-0.001,0.006c15.878,4.186 33.106,1.509 49.553,-2.645c14.753,-3.726 29.081,-9 43.155,-14.844l0.362,-0.151c-15.239,-6.043 -31.407,-10.612 -47.653,-10.788c-0.37,-0.002 -0.741,-0.002 -1.111,-0.001Z" style="fill:#ef4343;"/><g><path d="M450.239,259.289c16.578,0.106 31.507,10.494 40.804,24.698c0,-0 2.341,7.471 -3.222,8.813c-5.488,1.323 -8.894,-7.567 -14.66,-12.961c-5.104,-4.775 -11.519,-8.124 -18.583,-9.015c-6.719,-0.847 -13.542,0.339 -19.974,2.232c-0,0 -3.165,0.631 -5.213,-1.092c-3.14,-2.642 -2.173,-8.483 2.521,-9.85c5.843,-1.7 11.794,-2.777 17.827,-2.824c0.166,-0.001 0.333,-0.001 0.5,-0.001Z" style="fill:#600004;"/><path d="M451.879,303.553c-9.673,0.838 -16.846,9.373 -16.008,19.046c0.839,9.673 9.373,16.846 19.047,16.008c9.673,-0.839 16.846,-9.373 16.007,-19.047c-0.838,-9.673 -9.373,-16.846 -19.046,-16.007Z" style="fill:#600004;"/><path d="M278.449,277.406c4.676,0.036 10.93,0.778 9.878,6.751c-0.967,5.49 -9.305,4.027 -16.506,4.844c-10.36,1.176 -20.083,6.933 -25.768,15.715c-2.35,3.631 -4.153,7.586 -5.623,11.647c0,-0 -2.254,3.893 -5.609,3.704c-3.366,-0.19 -6.082,-3.848 -5.078,-7.224c3.98,-13.386 15.815,-28.666 32.188,-33.345c5.345,-1.528 10.888,-2.097 16.518,-2.092Z" style="fill:#600004;"/><path d="M278.933,325.501c-9.673,0.839 -16.846,9.373 -16.007,19.046c0.838,9.674 9.373,16.847 19.046,16.008c9.673,-0.839 16.846,-9.373 16.008,-19.046c-0.839,-9.674 -9.373,-16.846 -19.047,-16.008Z" style="fill:#600004;"/></g><circle cx="459.089" cy="312.558" r="4.171" style="fill:#f6fcff;"/><circle cx="286.143" cy="334.506" r="4.171" style="fill:#f6fcff;"/><path d="M230.773,390.063c24.485,-3.497 47.202,13.542 50.699,38.027c3.497,24.484 -13.542,47.202 -38.027,50.698c-24.484,3.497 -47.202,-13.542 -50.698,-38.026c-3.497,-24.485 13.542,-47.202 38.026,-50.699Z" style="fill:#ffb758;"/><path d="M514.907,351.581c24.484,-3.497 47.202,13.542 50.698,38.027c3.497,24.484 -13.542,47.202 -38.026,50.699c-24.485,3.496 -47.202,-13.543 -50.699,-38.027c-3.497,-24.485 13.542,-47.202 38.027,-50.699Z" style="fill:#ffb758;"/><g id="Crest"></g></svg>