<?xml version="1.0" encoding="UTF-8" standalone="no"?><!DOCTYPE svg PUBLIC "-//W3C//DTD SVG 1.1//EN" "http://www.w3.org/Graphics/SVG/1.1/DTD/svg11.dtd"><svg width="100%" height="100%" viewBox="0 0 692 755" version="1.1" xmlns="http://www.w3.org/2000/svg" xmlns:xlink="http://www.w3.org/1999/xlink" xml:space="preserve" xmlns:serif="http://www.serif.com/" style="fill-rule:evenodd;clip-rule:evenodd;stroke-linejoin:round;stroke-miterlimit:2;"><rect id="mascot-full-pink" x="-307.246" y="-278.968" width="1283.33" height="1283.33" style="fill:none;"/><g><path d="M322.567,606.875c5.392,0.898 5.088,8.595 4.633,14.915c-2.292,31.851 -17.427,63.215 -42.209,83.226c-11.086,8.953 -24.42,15.714 -38.621,16.439c-3.434,0.176 -7.135,-1.691 -7.352,-5.228c-0.218,-3.558 3.321,-5.793 7.321,-6.046c22.544,-1.525 41.868,-19.958 53.943,-39.95c10.394,-17.209 16.009,-37.307 15.97,-57.416c0,-0 1.194,-6.351 6.315,-5.94Z" style="fill:#f471b4;"/><path d="M384.108,598.033c2.861,0.379 4.711,3.359 5.355,5.196c11.828,33.724 19.076,71.133 11.367,103.758c-3.443,14.571 -11.655,28.752 -25.974,35.41c-0,0 -3.024,1.256 -5.416,-0.125c-3.86,-2.229 -3.108,-8.171 1.729,-10.593c13.28,-6.775 18.837,-23.605 20.388,-37.072c3.441,-29.872 -3.079,-60.785 -13.22,-89.066c0,0 -0.699,-2.259 0.153,-4.181c0.94,-2.12 3.174,-3.416 5.618,-3.327Z" style="fill:#f471b4;"/></g><path d="M178.892,476.88c-19.149,-32.1 -176.966,-57.932 -158.965,-36.986c18,20.946 94.39,47.084 98.855,47.416c-22.611,8.372 -83.28,24.403 -69.604,34.642c13.675,10.239 75.409,-5.077 75.316,-4.878c-16.609,13.88 -36.126,54.24 -14.951,44.76c33.41,-14.957 80.507,-66.249 69.349,-84.954Z" style="fill:#fcd0e8;"/><path d="M555.194,467.514c8.714,-33.545 142.495,-97.505 131.908,-74.186c-10.587,23.318 -71.803,66.414 -75.692,67.868c22.301,1.584 80.469,0.107 70.953,12.771c-9.516,12.664 -68.446,15.054 -68.312,15.207c18.389,8.045 46.239,38.907 24.928,35.964c-33.623,-4.643 -88.862,-38.077 -83.785,-57.624Z" style="fill:#fcd0e8;"/><path d="M333.283,101.639c-3.044,-22.488 -7.834,-44.722 -12.788,-66.868c-1.955,-8.74 -4.918,-17.236 -7.913,-25.676c-3.839,-10.821 -14.761,-9.102 -17.754,6.204c-3.107,15.885 -5.03,53.091 -3.969,55.97c-57.758,-61.544 -100.98,-43.003 -39.058,25.449c-74.761,-5.445 -60.199,15.056 -18.985,31.918c38.492,15.748 111.584,41.443 100.467,-26.997" style="fill:#f471b4;"/><path d="M315.844,114.648c149.911,-22.108 266.465,79.957 286.167,217.906c19.702,137.949 -76.3,265.942 -214.249,285.644c-137.949,19.702 -265.942,-76.3 -285.644,-214.249c-18.559,-129.947 63.815,-267.193 213.726,-289.301Z" style="fill:#fde8f3;"/><path d="M169.505,189.661c-25.295,48.055 -35.282,103.874 -27.494,158.407c19.702,137.949 147.695,233.951 285.644,214.249c58.858,-8.406 110.079,-36.526 147.936,-76.721c-36.457,69.27 -104.488,120.699 -187.829,132.602c-137.949,19.702 -265.942,-76.3 -285.644,-214.249c-11.067,-77.488 13.756,-157.571 67.387,-214.288Z" style="fill:#fde8f3;"/><g><path d="M419.329,377.632c-16.687,4.351 -34.072,7.166 -51.074,4.369l-0.106,-0.018c3.906,14.881 17.123,28.064 34.588,24.817c8.818,-1.639 17.408,-8.327 18.505,-17.829c0.44,-3.812 -0.226,-7.681 -1.469,-11.333c-0,0 -0.248,-0.058 -0.444,-0.006Z" style="fill:#f471b4;"/><path d="M409.461,341.413c-15.557,0.135 -31.575,6.056 -40.484,18.958c-1.974,2.859 -3.585,6.052 -3.821,9.466l-0,0.005c15.878,4.187 33.106,1.509 49.552,-2.644c14.753,-3.727 29.082,-9.001 43.156,-14.845l0.362,-0.151c-15.239,-6.043 -31.407,-10.611 -47.653,-10.788c-0.371,-0.002 -0.741,-0.002 -1.112,-0.001Z" style="fill:#f471b4;"/><g><path d="M466.906,239.63c16.578,0.106 31.507,10.493 40.804,24.697c-0,-0 2.341,7.471 -3.222,8.813c-5.489,1.323 -8.895,-7.567 -14.66,-12.961c-5.104,-4.775 -11.519,-8.124 -18.584,-9.015c-6.718,-0.847 -13.541,0.339 -19.974,2.233c0,-0 -3.164,0.63 -5.212,-1.093c-3.14,-2.641 -2.174,-8.483 2.521,-9.849c5.843,-1.701 11.793,-2.778 17.826,-2.825c0.167,-0.001 0.334,-0.001 0.501,-0Z" style="fill:#801942;"/><g><path d="M468.546,283.893c-9.674,0.838 -16.846,9.373 -16.008,19.046c0.839,9.674 9.373,16.846 19.046,16.008c9.674,-0.839 16.847,-9.373 16.008,-19.047c-0.839,-9.673 -9.373,-16.846 -19.046,-16.007Z" style="fill:#801942;"/><circle cx="475.756" cy="292.898" r="4.171" style="fill:#f6fcff;"/></g></g><g><path d="M295.116,257.746c4.676,0.036 10.93,0.778 9.878,6.751c-0.967,5.49 -9.305,4.027 -16.506,4.844c-10.36,1.176 -20.084,6.934 -25.768,15.716c-2.35,3.63 -4.154,7.586 -5.623,11.646c0,-0 -2.255,3.893 -5.609,3.704c-3.367,-0.189 -6.082,-3.847 -5.078,-7.223c3.98,-13.387 15.815,-28.666 32.188,-33.346c5.344,-1.528 10.888,-2.097 16.518,-2.092Z" style="fill:#801942;"/><g><path d="M295.6,305.841c-9.674,0.839 -16.846,9.373 -16.008,19.047c0.839,9.673 9.373,16.846 19.047,16.007c9.673,-0.838 16.846,-9.373 16.007,-19.046c-0.838,-9.674 -9.373,-16.846 -19.046,-16.008Z" style="fill:#801942;"/><circle cx="302.81" cy="314.847" r="4.171" style="fill:#f6fcff;"/></g></g><path d="M247.44,370.403c24.485,-3.497 47.202,13.542 50.699,38.027c3.497,24.484 -13.543,47.202 -38.027,50.699c-24.485,3.497 -47.202,-13.543 -50.699,-38.027c-3.497,-24.485 13.543,-47.202 38.027,-50.699Z" style="fill:#fcd0e8;"/><path d="M531.573,331.921c24.485,-3.497 47.202,13.543 50.699,38.027c3.497,24.485 -13.542,47.202 -38.027,50.699c-24.484,3.497 -47.202,-13.543 -50.698,-38.027c-3.497,-24.485 13.542,-47.202 38.026,-50.699Z" style="fill:#fcd0e8;"/></g></svg>